<svg xmlns="http://www.w3.org/2000/svg" xmlns:xlink="http://www.w3.org/1999/xlink" width="620" zoomAndPan="magnify" viewBox="0 0 464.87997 157.5" height="210" preserveAspectRatio="xMidYMid meet" version="1.0"><defs><clipPath id="affc5a761d"><path d="M 0.675781 0 L 464.085938 0 L 464.085938 157 L 0.675781 157 Z M 0.675781 0 " clip-rule="nonzero"/></clipPath><clipPath id="3918ac0146"><path d="M 96.457031 31.785156 L 464.085938 31.785156 L 464.085938 112.53125 L 96.457031 112.53125 Z M 96.457031 31.785156 " clip-rule="nonzero"/></clipPath><clipPath id="95c506881c"><path d="M 31.390625 39.800781 L 96.433594 39.800781 L 96.433594 104.847656 L 31.390625 104.847656 Z M 31.390625 39.800781 " clip-rule="nonzero"/></clipPath></defs><g clip-path="url(#affc5a761d)"><path fill="#ffffff" d="M 0.675781 0 L 464.203125 0 L 464.203125 157 L 0.675781 157 Z M 0.675781 0 " fill-opacity="1" fill-rule="nonzero"/><path fill="#ffffff" d="M 0.675781 0 L 464.203125 0 L 464.203125 157 L 0.675781 157 Z M 0.675781 0 " fill-opacity="1" fill-rule="nonzero"/></g><g clip-path="url(#3918ac0146)"><rect x="-46.487997" width="557.855964" fill="#ffffff" y="-15.75" height="189" fill-opacity="1"/></g><path fill="#0f0f0e" d="M 118.195312 101.945312 L 118.195312 44.066406 L 141.667969 44.066406 C 146.144531 44.066406 150.0625 44.71875 153.425781 46.023438 C 156.789062 47.324219 159.417969 49.449219 161.3125 52.390625 C 163.207031 55.335938 164.15625 59.316406 164.15625 64.332031 C 164.15625 68.976562 163.136719 72.84375 161.101562 75.933594 C 159.0625 79.023438 156.300781 81.328125 152.804688 82.84375 C 149.3125 84.359375 145.347656 85.117188 140.914062 85.117188 L 131.480469 85.117188 L 131.480469 101.945312 Z M 131.480469 73.292969 L 140.847656 73.292969 C 144.003906 73.292969 146.492188 72.539062 148.308594 71.027344 C 150.128906 69.515625 151.035156 67.285156 151.035156 64.332031 C 151.035156 61.671875 150.253906 59.675781 148.695312 58.34375 C 147.132812 57.015625 144.59375 56.351562 141.078125 56.351562 L 131.480469 56.351562 Z M 131.480469 73.292969 " fill-opacity="1" fill-rule="nonzero"/><path fill="#0f0f0e" d="M 171.003906 101.945312 L 171.003906 44.066406 L 213.769531 44.066406 L 213.769531 56.351562 L 184.289062 56.351562 L 184.289062 67.308594 L 209.070312 67.308594 L 209.070312 79.082031 L 184.289062 79.082031 L 184.289062 89.726562 L 213.769531 89.726562 L 213.769531 101.945312 Z M 171.003906 101.945312 " fill-opacity="1" fill-rule="nonzero"/><path fill="#0f0f0e" d="M 246.136719 102.597656 C 240.144531 102.597656 235.027344 101.394531 230.785156 98.992188 C 226.542969 96.589844 223.308594 93.1875 221.085938 88.789062 C 218.867188 84.386719 217.753906 79.21875 217.753906 73.277344 C 217.753906 67.214844 218.902344 61.941406 221.195312 57.453125 C 223.488281 52.96875 226.742188 49.496094 230.964844 47.035156 C 235.183594 44.578125 240.1875 43.347656 245.972656 43.347656 C 250.453125 43.347656 254.496094 44.136719 258.101562 45.710938 C 261.710938 47.285156 264.644531 49.617188 266.90625 52.703125 C 269.167969 55.789062 270.542969 59.652344 271.035156 64.296875 L 258.390625 64.296875 C 257.703125 61.636719 256.367188 59.558594 254.386719 58.066406 C 252.402344 56.574219 249.714844 55.828125 246.320312 55.828125 C 242.648438 55.828125 239.726562 56.652344 237.546875 58.304688 C 235.371094 59.957031 233.8125 62.066406 232.871094 64.632812 C 231.933594 67.199219 231.464844 69.890625 231.464844 72.703125 C 231.464844 75.558594 231.960938 78.324219 232.953125 80.996094 C 233.945312 83.667969 235.550781 85.855469 237.769531 87.5625 C 239.984375 89.265625 242.917969 90.121094 246.5625 90.121094 C 248.769531 90.121094 250.699219 89.792969 252.355469 89.140625 C 254.007812 88.484375 255.382812 87.527344 256.480469 86.261719 C 257.578125 84.996094 258.335938 83.480469 258.75 81.714844 L 271.769531 81.714844 C 271.34375 86.273438 269.917969 90.105469 267.488281 93.21875 C 265.058594 96.332031 261.980469 98.671875 258.257812 100.242188 C 254.535156 101.8125 250.496094 102.597656 246.136719 102.597656 Z M 246.136719 102.597656 " fill-opacity="1" fill-rule="nonzero"/><path fill="#0f0f0e" d="M 291.210938 101.945312 L 291.210938 56.351562 L 273.734375 56.351562 L 273.734375 44.066406 L 322.035156 44.066406 L 322.035156 56.351562 L 304.496094 56.351562 L 304.496094 101.945312 Z M 291.210938 101.945312 " fill-opacity="1" fill-rule="nonzero"/><path fill="#0f0f0e" d="M 352.917969 102.597656 C 346.996094 102.597656 341.867188 101.359375 337.519531 98.886719 C 333.175781 96.410156 329.824219 92.949219 327.472656 88.5 C 325.117188 84.054688 323.941406 78.914062 323.941406 73.078125 C 323.941406 67.105469 325.152344 61.894531 327.570312 57.445312 C 329.988281 52.996094 333.394531 49.535156 337.78125 47.0625 C 342.171875 44.585938 347.324219 43.347656 353.242188 43.347656 C 359.117188 43.347656 364.226562 44.5625 368.566406 46.996094 C 372.90625 49.425781 376.285156 52.84375 378.703125 57.25 C 381.121094 61.652344 382.332031 66.820312 382.332031 72.753906 C 382.332031 78.585938 381.132812 83.746094 378.738281 88.238281 C 376.339844 92.730469 372.9375 96.246094 368.53125 98.789062 C 364.128906 101.328125 358.921875 102.597656 352.917969 102.597656 Z M 353.179688 90.121094 C 356.890625 90.121094 359.894531 89.265625 362.1875 87.5625 C 364.480469 85.855469 366.148438 83.691406 367.191406 81.078125 C 368.234375 78.460938 368.753906 75.792969 368.753906 73.078125 C 368.753906 71.050781 368.46875 69.027344 367.894531 67.003906 C 367.320312 64.980469 366.421875 63.125 365.199219 61.4375 C 363.976562 59.746094 362.371094 58.386719 360.386719 57.363281 C 358.398438 56.339844 355.972656 55.828125 353.113281 55.828125 C 349.453125 55.828125 346.476562 56.660156 344.179688 58.328125 C 341.878906 59.996094 340.191406 62.140625 339.117188 64.753906 C 338.042969 67.371094 337.503906 70.125 337.503906 73.015625 C 337.503906 75.890625 338.050781 78.640625 339.140625 81.257812 C 340.234375 83.875 341.941406 86.003906 344.261719 87.652344 C 346.582031 89.296875 349.554688 90.121094 353.179688 90.121094 Z M 353.179688 90.121094 " fill-opacity="1" fill-rule="nonzero"/><path fill="#0f0f0e" d="M 389.523438 101.945312 L 389.523438 44.066406 L 402.808594 44.066406 L 402.808594 67.191406 L 410.945312 67.191406 L 424.738281 44.066406 L 439.871094 44.066406 L 421.953125 71.984375 L 439.773438 101.945312 L 424.328125 101.945312 L 411.324219 79.410156 L 402.808594 79.410156 L 402.808594 101.945312 Z M 389.523438 101.945312 " fill-opacity="1" fill-rule="nonzero"/><g clip-path="url(#95c506881c)"><path fill="#0f0f0e" d="M 44.402344 39.800781 L 83.425781 39.800781 C 84.28125 39.800781 85.125 39.886719 85.964844 40.050781 C 86.800781 40.21875 87.617188 40.464844 88.40625 40.792969 C 89.195312 41.121094 89.945312 41.519531 90.652344 41.996094 C 91.363281 42.46875 92.019531 43.007812 92.625 43.613281 C 93.230469 44.214844 93.769531 44.875 94.242188 45.585938 C 94.71875 46.292969 95.117188 47.042969 95.445312 47.832031 C 95.773438 48.621094 96.019531 49.4375 96.183594 50.273438 C 96.351562 51.109375 96.433594 51.957031 96.433594 52.8125 L 96.433594 91.835938 C 96.433594 92.691406 96.351562 93.539062 96.183594 94.375 C 96.019531 95.214844 95.773438 96.027344 95.445312 96.816406 C 95.117188 97.605469 94.71875 98.355469 94.242188 99.066406 C 93.769531 99.773438 93.230469 100.433594 92.625 101.035156 C 92.019531 101.640625 91.363281 102.179688 90.652344 102.652344 C 89.945312 103.128906 89.195312 103.527344 88.40625 103.855469 C 87.617188 104.183594 86.800781 104.429688 85.964844 104.597656 C 85.125 104.761719 84.28125 104.847656 83.425781 104.847656 L 44.402344 104.847656 C 43.546875 104.847656 42.699219 104.761719 41.863281 104.597656 C 41.023438 104.429688 40.210938 104.183594 39.421875 103.855469 C 38.632812 103.527344 37.882812 103.128906 37.171875 102.652344 C 36.464844 102.179688 35.804688 101.640625 35.203125 101.035156 C 34.597656 100.433594 34.058594 99.773438 33.585938 99.066406 C 33.109375 98.355469 32.710938 97.605469 32.382812 96.816406 C 32.054688 96.027344 31.808594 95.214844 31.640625 94.375 C 31.476562 93.539062 31.390625 92.691406 31.390625 91.835938 L 31.390625 52.8125 C 31.390625 51.957031 31.476562 51.109375 31.640625 50.273438 C 31.808594 49.4375 32.054688 48.621094 32.382812 47.832031 C 32.710938 47.042969 33.109375 46.292969 33.585938 45.585938 C 34.058594 44.875 34.597656 44.214844 35.203125 43.613281 C 35.804688 43.007812 36.464844 42.46875 37.171875 41.996094 C 37.882812 41.519531 38.632812 41.121094 39.421875 40.792969 C 40.210938 40.464844 41.023438 40.21875 41.863281 40.050781 C 42.699219 39.886719 43.546875 39.800781 44.402344 39.800781 Z M 44.402344 39.800781 " fill-opacity="1" fill-rule="nonzero"/></g><path fill="#ffc72c" d="M 55.945312 60.941406 L 71.882812 60.941406 C 72.335938 60.941406 72.769531 61.027344 73.1875 61.203125 C 73.605469 61.375 73.976562 61.621094 74.296875 61.941406 C 74.617188 62.261719 74.863281 62.632812 75.035156 63.050781 C 75.210938 63.46875 75.296875 63.902344 75.296875 64.355469 L 75.296875 80.292969 C 75.296875 80.746094 75.210938 81.179688 75.035156 81.597656 C 74.863281 82.015625 74.617188 82.386719 74.296875 82.707031 C 73.976562 83.027344 73.605469 83.273438 73.1875 83.445312 C 72.769531 83.621094 72.335938 83.707031 71.882812 83.707031 L 55.945312 83.707031 C 55.492188 83.707031 55.058594 83.621094 54.640625 83.445312 C 54.222656 83.273438 53.851562 83.027344 53.53125 82.707031 C 53.210938 82.386719 52.964844 82.015625 52.789062 81.597656 C 52.617188 81.179688 52.53125 80.746094 52.53125 80.292969 L 52.53125 64.355469 C 52.53125 63.902344 52.617188 63.46875 52.789062 63.050781 C 52.964844 62.632812 53.210938 62.261719 53.53125 61.941406 C 53.851562 61.621094 54.222656 61.375 54.640625 61.203125 C 55.058594 61.027344 55.492188 60.941406 55.945312 60.941406 Z M 55.945312 60.941406 " fill-opacity="1" fill-rule="nonzero"/></svg>