<svg xmlns="http://www.w3.org/2000/svg" xmlns:xlink="http://www.w3.org/1999/xlink" width="620" zoomAndPan="magnify" viewBox="0 0 464.87997 157.5" height="210" preserveAspectRatio="xMidYMid meet" version="1.0"><defs><clipPath id="81b5f3a942"><path d="M 0.675781 0 L 464.085938 0 L 464.085938 157 L 0.675781 157 Z M 0.675781 0 " clip-rule="nonzero"/></clipPath><clipPath id="20506dbc50"><path d="M 96.457031 31.785156 L 464.085938 31.785156 L 464.085938 112.53125 L 96.457031 112.53125 Z M 96.457031 31.785156 " clip-rule="nonzero"/></clipPath><clipPath id="57b66d9867"><path d="M 33.65625 40.933594 L 96.457031 40.933594 L 96.457031 103.734375 L 33.65625 103.734375 Z M 33.65625 40.933594 " clip-rule="nonzero"/></clipPath></defs><g clip-path="url(#81b5f3a942)"><path fill="#ffffff" d="M 0.675781 0 L 464.203125 0 L 464.203125 157 L 0.675781 157 Z M 0.675781 0 " fill-opacity="1" fill-rule="nonzero"/><path fill="#ffffff" d="M 0.675781 0 L 464.203125 0 L 464.203125 157 L 0.675781 157 Z M 0.675781 0 " fill-opacity="1" fill-rule="nonzero"/></g><g clip-path="url(#20506dbc50)"><rect x="-46.487997" width="557.855964" fill="#ffffff" y="-15.75" height="189" fill-opacity="1"/></g><path fill="#0f0f0e" d="M 118.195312 101.945312 L 118.195312 44.066406 L 141.667969 44.066406 C 146.144531 44.066406 150.0625 44.71875 153.425781 46.023438 C 156.789062 47.324219 159.417969 49.449219 161.3125 52.390625 C 163.207031 55.335938 164.15625 59.316406 164.15625 64.332031 C 164.15625 68.976562 163.136719 72.84375 161.101562 75.933594 C 159.0625 79.023438 156.300781 81.328125 152.804688 82.84375 C 149.3125 84.359375 145.347656 85.117188 140.914062 85.117188 L 131.480469 85.117188 L 131.480469 101.945312 Z M 131.480469 73.292969 L 140.847656 73.292969 C 144.003906 73.292969 146.492188 72.539062 148.308594 71.027344 C 150.128906 69.515625 151.035156 67.285156 151.035156 64.332031 C 151.035156 61.671875 150.253906 59.675781 148.695312 58.34375 C 147.132812 57.015625 144.59375 56.351562 141.078125 56.351562 L 131.480469 56.351562 Z M 131.480469 73.292969 " fill-opacity="1" fill-rule="nonzero"/><path fill="#0f0f0e" d="M 171.003906 101.945312 L 171.003906 44.066406 L 213.769531 44.066406 L 213.769531 56.351562 L 184.289062 56.351562 L 184.289062 67.308594 L 209.070312 67.308594 L 209.070312 79.082031 L 184.289062 79.082031 L 184.289062 89.726562 L 213.769531 89.726562 L 213.769531 101.945312 Z M 171.003906 101.945312 " fill-opacity="1" fill-rule="nonzero"/><path fill="#0f0f0e" d="M 246.136719 102.597656 C 240.144531 102.597656 235.027344 101.394531 230.785156 98.992188 C 226.542969 96.589844 223.308594 93.1875 221.085938 88.789062 C 218.867188 84.386719 217.753906 79.21875 217.753906 73.277344 C 217.753906 67.214844 218.902344 61.941406 221.195312 57.453125 C 223.488281 52.96875 226.742188 49.496094 230.964844 47.035156 C 235.183594 44.578125 240.1875 43.347656 245.972656 43.347656 C 250.453125 43.347656 254.496094 44.136719 258.101562 45.710938 C 261.710938 47.285156 264.644531 49.617188 266.90625 52.703125 C 269.167969 55.789062 270.542969 59.652344 271.035156 64.296875 L 258.390625 64.296875 C 257.703125 61.636719 256.367188 59.558594 254.386719 58.066406 C 252.402344 56.574219 249.714844 55.828125 246.320312 55.828125 C 242.648438 55.828125 239.726562 56.652344 237.546875 58.304688 C 235.371094 59.957031 233.8125 62.066406 232.871094 64.632812 C 231.933594 67.199219 231.464844 69.890625 231.464844 72.703125 C 231.464844 75.558594 231.960938 78.324219 232.953125 80.996094 C 233.945312 83.667969 235.550781 85.855469 237.769531 87.5625 C 239.984375 89.265625 242.917969 90.121094 246.5625 90.121094 C 248.769531 90.121094 250.699219 89.792969 252.355469 89.140625 C 254.007812 88.484375 255.382812 87.527344 256.480469 86.261719 C 257.578125 84.996094 258.335938 83.480469 258.75 81.714844 L 271.769531 81.714844 C 271.34375 86.273438 269.917969 90.105469 267.488281 93.21875 C 265.058594 96.332031 261.980469 98.671875 258.257812 100.242188 C 254.535156 101.8125 250.496094 102.597656 246.136719 102.597656 Z M 246.136719 102.597656 " fill-opacity="1" fill-rule="nonzero"/><path fill="#0f0f0e" d="M 291.210938 101.945312 L 291.210938 56.351562 L 273.734375 56.351562 L 273.734375 44.066406 L 322.035156 44.066406 L 322.035156 56.351562 L 304.496094 56.351562 L 304.496094 101.945312 Z M 291.210938 101.945312 " fill-opacity="1" fill-rule="nonzero"/><path fill="#0f0f0e" d="M 352.917969 102.597656 C 346.996094 102.597656 341.867188 101.359375 337.519531 98.886719 C 333.175781 96.410156 329.824219 92.949219 327.472656 88.5 C 325.117188 84.054688 323.941406 78.914062 323.941406 73.078125 C 323.941406 67.105469 325.152344 61.894531 327.570312 57.445312 C 329.988281 52.996094 333.394531 49.535156 337.78125 47.0625 C 342.171875 44.585938 347.324219 43.347656 353.242188 43.347656 C 359.117188 43.347656 364.226562 44.5625 368.566406 46.996094 C 372.90625 49.425781 376.285156 52.84375 378.703125 57.25 C 381.121094 61.652344 382.332031 66.820312 382.332031 72.753906 C 382.332031 78.585938 381.132812 83.746094 378.738281 88.238281 C 376.339844 92.730469 372.9375 96.246094 368.53125 98.789062 C 364.128906 101.328125 358.921875 102.597656 352.917969 102.597656 Z M 353.179688 90.121094 C 356.890625 90.121094 359.894531 89.265625 362.1875 87.5625 C 364.480469 85.855469 366.148438 83.691406 367.191406 81.078125 C 368.234375 78.460938 368.753906 75.792969 368.753906 73.078125 C 368.753906 71.050781 368.46875 69.027344 367.894531 67.003906 C 367.320312 64.980469 366.421875 63.125 365.199219 61.4375 C 363.976562 59.746094 362.371094 58.386719 360.386719 57.363281 C 358.398438 56.339844 355.972656 55.828125 353.113281 55.828125 C 349.453125 55.828125 346.476562 56.660156 344.179688 58.328125 C 341.878906 59.996094 340.191406 62.140625 339.117188 64.753906 C 338.042969 67.371094 337.503906 70.125 337.503906 73.015625 C 337.503906 75.890625 338.050781 78.640625 339.140625 81.257812 C 340.234375 83.875 341.941406 86.003906 344.261719 87.652344 C 346.582031 89.296875 349.554688 90.121094 353.179688 90.121094 Z M 353.179688 90.121094 " fill-opacity="1" fill-rule="nonzero"/><path fill="#0f0f0e" d="M 389.523438 101.945312 L 389.523438 44.066406 L 402.808594 44.066406 L 402.808594 67.191406 L 410.945312 67.191406 L 424.738281 44.066406 L 439.871094 44.066406 L 421.953125 71.984375 L 439.773438 101.945312 L 424.328125 101.945312 L 411.324219 79.410156 L 402.808594 79.410156 L 402.808594 101.945312 Z M 389.523438 101.945312 " fill-opacity="1" fill-rule="nonzero"/><g clip-path="url(#57b66d9867)"><path stroke-linecap="butt" transform="matrix(0.314003, 0, 0, 0.314003, 33.657647, 40.935434)" fill="none" stroke-linejoin="miter" d="M 42.005976 1.997004 L 157.998044 1.997004 C 160.622918 1.997004 163.222912 2.258248 165.798026 2.768294 C 168.385579 3.278341 170.886052 4.037191 173.311883 5.044844 C 175.737715 6.052497 178.039145 7.284073 180.228613 8.739572 C 182.405642 10.195071 184.420948 11.862053 186.286972 13.715637 C 188.140556 15.569221 189.795098 17.596967 191.263037 19.773996 C 192.718536 21.963464 193.950112 24.264894 194.957765 26.690725 C 195.965418 29.116557 196.724268 31.61703 197.234314 34.192143 C 197.744361 36.767257 198.005604 39.37969 198.005604 42.004565 L 198.005604 157.996633 C 198.005604 160.621507 197.744361 163.221501 197.234314 165.809055 C 196.724268 168.384168 195.965418 170.884641 194.957765 173.310472 C 193.950112 175.736304 192.718536 178.037734 191.263037 180.227202 C 189.795098 182.40423 188.140556 184.431977 186.286972 186.285561 C 184.420948 188.139145 182.405642 189.793686 180.228613 191.261626 C 178.039145 192.717124 175.737715 193.9487 173.311883 194.956354 C 170.886052 195.964007 168.385579 196.722857 165.798026 197.232903 C 163.222912 197.74295 160.622918 198.004193 157.998044 198.004193 L 42.005976 198.004193 C 39.368662 198.004193 36.768668 197.74295 34.193554 197.232903 C 31.618441 196.722857 29.117968 195.964007 26.692137 194.956354 C 24.266305 193.9487 21.964875 192.717124 19.775407 191.261626 C 17.598378 189.793686 15.570632 188.139145 13.717048 186.285561 C 11.863464 184.431977 10.196482 182.40423 8.740983 180.227202 C 7.285484 178.037734 6.053908 175.736304 5.046255 173.310472 C 4.038602 170.884641 3.279752 168.384168 2.769706 165.809055 C 2.259659 163.221501 1.998416 160.621507 1.998416 157.996633 L 1.998416 42.004565 C 1.998416 39.37969 2.259659 36.767257 2.769706 34.192143 C 3.279752 31.61703 4.038602 29.116557 5.046255 26.690725 C 6.053908 24.264894 7.285484 21.963464 8.740983 19.773996 C 10.196482 17.596967 11.863464 15.569221 13.717048 13.715637 C 15.570632 11.862053 17.598378 10.195071 19.775407 8.739572 C 21.964875 7.284073 24.266305 6.052497 26.692137 5.044844 C 29.117968 4.037191 31.618441 3.278341 34.193554 2.768294 C 36.768668 2.258248 39.368662 1.997004 42.005976 1.997004 Z M 42.005976 1.997004 " stroke="#0f0f0e" stroke-width="6" stroke-opacity="1" stroke-miterlimit="4"/></g><path fill="#0f0f0e" d="M 57.363281 61.34375 L 72.75 61.34375 C 73.1875 61.34375 73.609375 61.429688 74.011719 61.597656 C 74.417969 61.765625 74.773438 62.003906 75.082031 62.3125 C 75.390625 62.621094 75.628906 62.976562 75.796875 63.382812 C 75.964844 63.785156 76.046875 64.207031 76.046875 64.644531 L 76.046875 80.027344 C 76.046875 80.464844 75.964844 80.886719 75.796875 81.289062 C 75.628906 81.695312 75.390625 82.050781 75.082031 82.359375 C 74.773438 82.667969 74.417969 82.90625 74.011719 83.074219 C 73.609375 83.242188 73.1875 83.324219 72.75 83.324219 L 57.363281 83.324219 C 56.925781 83.324219 56.507812 83.242188 56.101562 83.074219 C 55.699219 82.90625 55.34375 82.667969 55.035156 82.359375 C 54.722656 82.050781 54.484375 81.695312 54.320312 81.289062 C 54.152344 80.886719 54.066406 80.464844 54.066406 80.027344 L 54.066406 64.644531 C 54.066406 64.207031 54.152344 63.785156 54.320312 63.382812 C 54.484375 62.976562 54.722656 62.621094 55.035156 62.3125 C 55.34375 62.003906 55.699219 61.765625 56.101562 61.597656 C 56.507812 61.429688 56.925781 61.34375 57.363281 61.34375 Z M 57.363281 61.34375 " fill-opacity="1" fill-rule="nonzero"/></svg>