<svg xmlns="http://www.w3.org/2000/svg" xmlns:xlink="http://www.w3.org/1999/xlink" width="620" zoomAndPan="magnify" viewBox="0 0 464.87997 157.5" height="210" preserveAspectRatio="xMidYMid meet" version="1.0"><defs><clipPath id="196b59a428"><path d="M 0.675781 0 L 464.085938 0 L 464.085938 157 L 0.675781 157 Z M 0.675781 0 " clip-rule="nonzero"/></clipPath><clipPath id="69649ed08f"><path d="M 96.457031 31.785156 L 464.085938 31.785156 L 464.085938 112.53125 L 96.457031 112.53125 Z M 96.457031 31.785156 " clip-rule="nonzero"/></clipPath><clipPath id="83300c2b68"><path d="M 33.65625 40.933594 L 96.457031 40.933594 L 96.457031 103.734375 L 33.65625 103.734375 Z M 33.65625 40.933594 " clip-rule="nonzero"/></clipPath></defs><g clip-path="url(#196b59a428)"><path fill="#ffffff" d="M 0.675781 0 L 464.203125 0 L 464.203125 157 L 0.675781 157 Z M 0.675781 0 " fill-opacity="1" fill-rule="nonzero"/><path fill="#ffffff" d="M 0.675781 0 L 464.203125 0 L 464.203125 157 L 0.675781 157 Z M 0.675781 0 " fill-opacity="1" fill-rule="nonzero"/></g><g clip-path="url(#69649ed08f)"><rect x="-46.487997" width="557.855964" fill="#ffffff" y="-15.75" height="189" fill-opacity="1"/></g><path fill="#0f0f0e" d="M 118.195312 101.945312 L 118.195312 44.066406 L 141.667969 44.066406 C 146.144531 44.066406 150.0625 44.71875 153.425781 46.023438 C 156.789062 47.324219 159.417969 49.449219 161.3125 52.390625 C 163.207031 55.335938 164.15625 59.316406 164.15625 64.332031 C 164.15625 68.976562 163.136719 72.84375 161.101562 75.933594 C 159.0625 79.023438 156.300781 81.328125 152.804688 82.84375 C 149.3125 84.359375 145.347656 85.117188 140.914062 85.117188 L 131.480469 85.117188 L 131.480469 101.945312 Z M 131.480469 73.292969 L 140.847656 73.292969 C 144.003906 73.292969 146.492188 72.539062 148.308594 71.027344 C 150.128906 69.515625 151.035156 67.285156 151.035156 64.332031 C 151.035156 61.671875 150.253906 59.675781 148.695312 58.34375 C 147.132812 57.015625 144.59375 56.351562 141.078125 56.351562 L 131.480469 56.351562 Z M 131.480469 73.292969 " fill-opacity="1" fill-rule="nonzero"/><path fill="#0f0f0e" d="M 171.003906 101.945312 L 171.003906 44.066406 L 213.769531 44.066406 L 213.769531 56.351562 L 184.289062 56.351562 L 184.289062 67.308594 L 209.070312 67.308594 L 209.070312 79.082031 L 184.289062 79.082031 L 184.289062 89.726562 L 213.769531 89.726562 L 213.769531 101.945312 Z M 171.003906 101.945312 " fill-opacity="1" fill-rule="nonzero"/><path fill="#0f0f0e" d="M 246.136719 102.597656 C 240.144531 102.597656 235.027344 101.394531 230.785156 98.992188 C 226.542969 96.589844 223.308594 93.1875 221.085938 88.789062 C 218.867188 84.386719 217.753906 79.21875 217.753906 73.277344 C 217.753906 67.214844 218.902344 61.941406 221.195312 57.453125 C 223.488281 52.96875 226.742188 49.496094 230.964844 47.035156 C 235.183594 44.578125 240.1875 43.347656 245.972656 43.347656 C 250.453125 43.347656 254.496094 44.136719 258.101562 45.710938 C 261.710938 47.285156 264.644531 49.617188 266.90625 52.703125 C 269.167969 55.789062 270.542969 59.652344 271.035156 64.296875 L 258.390625 64.296875 C 257.703125 61.636719 256.367188 59.558594 254.386719 58.066406 C 252.402344 56.574219 249.714844 55.828125 246.320312 55.828125 C 242.648438 55.828125 239.726562 56.652344 237.546875 58.304688 C 235.371094 59.957031 233.8125 62.066406 232.871094 64.632812 C 231.933594 67.199219 231.464844 69.890625 231.464844 72.703125 C 231.464844 75.558594 231.960938 78.324219 232.953125 80.996094 C 233.945312 83.667969 235.550781 85.855469 237.769531 87.5625 C 239.984375 89.265625 242.917969 90.121094 246.5625 90.121094 C 248.769531 90.121094 250.699219 89.792969 252.355469 89.140625 C 254.007812 88.484375 255.382812 87.527344 256.480469 86.261719 C 257.578125 84.996094 258.335938 83.480469 258.75 81.714844 L 271.769531 81.714844 C 271.34375 86.273438 269.917969 90.105469 267.488281 93.21875 C 265.058594 96.332031 261.980469 98.671875 258.257812 100.242188 C 254.535156 101.8125 250.496094 102.597656 246.136719 102.597656 Z M 246.136719 102.597656 " fill-opacity="1" fill-rule="nonzero"/><path fill="#0f0f0e" d="M 291.210938 101.945312 L 291.210938 56.351562 L 273.734375 56.351562 L 273.734375 44.066406 L 322.035156 44.066406 L 322.035156 56.351562 L 304.496094 56.351562 L 304.496094 101.945312 Z M 291.210938 101.945312 " fill-opacity="1" fill-rule="nonzero"/><path fill="#0f0f0e" d="M 352.917969 102.597656 C 346.996094 102.597656 341.867188 101.359375 337.519531 98.886719 C 333.175781 96.410156 329.824219 92.949219 327.472656 88.5 C 325.117188 84.054688 323.941406 78.914062 323.941406 73.078125 C 323.941406 67.105469 325.152344 61.894531 327.570312 57.445312 C 329.988281 52.996094 333.394531 49.535156 337.78125 47.0625 C 342.171875 44.585938 347.324219 43.347656 353.242188 43.347656 C 359.117188 43.347656 364.226562 44.5625 368.566406 46.996094 C 372.90625 49.425781 376.285156 52.84375 378.703125 57.25 C 381.121094 61.652344 382.332031 66.820312 382.332031 72.753906 C 382.332031 78.585938 381.132812 83.746094 378.738281 88.238281 C 376.339844 92.730469 372.9375 96.246094 368.53125 98.789062 C 364.128906 101.328125 358.921875 102.597656 352.917969 102.597656 Z M 353.179688 90.121094 C 356.890625 90.121094 359.894531 89.265625 362.1875 87.5625 C 364.480469 85.855469 366.148438 83.691406 367.191406 81.078125 C 368.234375 78.460938 368.753906 75.792969 368.753906 73.078125 C 368.753906 71.050781 368.46875 69.027344 367.894531 67.003906 C 367.320312 64.980469 366.421875 63.125 365.199219 61.4375 C 363.976562 59.746094 362.371094 58.386719 360.386719 57.363281 C 358.398438 56.339844 355.972656 55.828125 353.113281 55.828125 C 349.453125 55.828125 346.476562 56.660156 344.179688 58.328125 C 341.878906 59.996094 340.191406 62.140625 339.117188 64.753906 C 338.042969 67.371094 337.503906 70.125 337.503906 73.015625 C 337.503906 75.890625 338.050781 78.640625 339.140625 81.257812 C 340.234375 83.875 341.941406 86.003906 344.261719 87.652344 C 346.582031 89.296875 349.554688 90.121094 353.179688 90.121094 Z M 353.179688 90.121094 " fill-opacity="1" fill-rule="nonzero"/><path fill="#0f0f0e" d="M 389.523438 101.945312 L 389.523438 44.066406 L 402.808594 44.066406 L 402.808594 67.191406 L 410.945312 67.191406 L 424.738281 44.066406 L 439.871094 44.066406 L 421.953125 71.984375 L 439.773438 101.945312 L 424.328125 101.945312 L 411.324219 79.410156 L 402.808594 79.410156 L 402.808594 101.945312 Z M 389.523438 101.945312 " fill-opacity="1" fill-rule="nonzero"/><g clip-path="url(#83300c2b68)"><path fill="#ffc72c" d="M 46.21875 40.933594 L 83.898438 40.933594 C 84.722656 40.933594 85.539062 41.015625 86.347656 41.175781 C 87.15625 41.335938 87.941406 41.574219 88.703125 41.890625 C 89.464844 42.207031 90.191406 42.59375 90.875 43.050781 C 91.5625 43.511719 92.195312 44.03125 92.78125 44.613281 C 93.363281 45.199219 93.882812 45.832031 94.339844 46.515625 C 94.800781 47.203125 95.1875 47.925781 95.503906 48.6875 C 95.816406 49.449219 96.054688 50.238281 96.21875 51.046875 C 96.378906 51.855469 96.457031 52.671875 96.457031 53.496094 L 96.457031 91.175781 C 96.457031 92 96.378906 92.816406 96.21875 93.625 C 96.054688 94.433594 95.816406 95.21875 95.503906 95.984375 C 95.1875 96.746094 94.800781 97.46875 94.339844 98.152344 C 93.882812 98.839844 93.363281 99.472656 92.78125 100.058594 C 92.195312 100.640625 91.5625 101.160156 90.875 101.621094 C 90.191406 102.078125 89.464844 102.464844 88.703125 102.78125 C 87.941406 103.09375 87.15625 103.332031 86.347656 103.496094 C 85.539062 103.65625 84.722656 103.734375 83.898438 103.734375 L 46.21875 103.734375 C 45.394531 103.734375 44.578125 103.65625 43.765625 103.496094 C 42.957031 103.332031 42.171875 103.09375 41.410156 102.78125 C 40.648438 102.464844 39.925781 102.078125 39.238281 101.621094 C 38.554688 101.160156 37.917969 100.640625 37.335938 100.058594 C 36.753906 99.472656 36.234375 98.839844 35.773438 98.152344 C 35.316406 97.46875 34.929688 96.746094 34.613281 95.984375 C 34.296875 95.21875 34.058594 94.433594 33.898438 93.625 C 33.738281 92.816406 33.65625 92 33.65625 91.175781 L 33.65625 53.496094 C 33.65625 52.671875 33.738281 51.855469 33.898438 51.046875 C 34.058594 50.238281 34.296875 49.449219 34.613281 48.6875 C 34.929688 47.925781 35.316406 47.203125 35.773438 46.515625 C 36.234375 45.832031 36.753906 45.199219 37.335938 44.613281 C 37.917969 44.03125 38.554688 43.511719 39.238281 43.050781 C 39.925781 42.59375 40.648438 42.207031 41.410156 41.890625 C 42.171875 41.574219 42.957031 41.335938 43.765625 41.175781 C 44.578125 41.015625 45.394531 40.933594 46.21875 40.933594 Z M 46.21875 40.933594 " fill-opacity="1" fill-rule="nonzero"/></g><path fill="#0f0f0e" d="M 57.363281 61.34375 L 72.75 61.34375 C 73.1875 61.34375 73.609375 61.429688 74.011719 61.597656 C 74.417969 61.765625 74.773438 62.003906 75.082031 62.3125 C 75.390625 62.621094 75.628906 62.976562 75.796875 63.382812 C 75.964844 63.785156 76.046875 64.207031 76.046875 64.644531 L 76.046875 80.027344 C 76.046875 80.464844 75.964844 80.886719 75.796875 81.289062 C 75.628906 81.695312 75.390625 82.050781 75.082031 82.359375 C 74.773438 82.667969 74.417969 82.90625 74.011719 83.074219 C 73.609375 83.242188 73.1875 83.324219 72.75 83.324219 L 57.363281 83.324219 C 56.925781 83.324219 56.507812 83.242188 56.101562 83.074219 C 55.699219 82.90625 55.34375 82.667969 55.035156 82.359375 C 54.722656 82.050781 54.484375 81.695312 54.320312 81.289062 C 54.152344 80.886719 54.066406 80.464844 54.066406 80.027344 L 54.066406 64.644531 C 54.066406 64.207031 54.152344 63.785156 54.320312 63.382812 C 54.484375 62.976562 54.722656 62.621094 55.035156 62.3125 C 55.34375 62.003906 55.699219 61.765625 56.101562 61.597656 C 56.507812 61.429688 56.925781 61.34375 57.363281 61.34375 Z M 57.363281 61.34375 " fill-opacity="1" fill-rule="nonzero"/></svg>