<svg xmlns="http://www.w3.org/2000/svg" xmlns:xlink="http://www.w3.org/1999/xlink" width="620" zoomAndPan="magnify" viewBox="0 0 464.87997 157.5" height="210" preserveAspectRatio="xMidYMid meet" version="1.0"><defs><clipPath id="866f281656"><path d="M 0.675781 0 L 464.085938 0 L 464.085938 157 L 0.675781 157 Z M 0.675781 0 " clip-rule="nonzero"/></clipPath><clipPath id="1087127d2a"><path d="M 133.191406 99.109375 L 434.484375 99.109375 L 434.484375 134.996094 L 133.191406 134.996094 Z M 133.191406 99.109375 " clip-rule="nonzero"/></clipPath><clipPath id="46beea38f1"><path d="M 126.550781 33.261719 L 448.777344 33.261719 L 448.777344 104.285156 L 126.550781 104.285156 Z M 126.550781 33.261719 " clip-rule="nonzero"/></clipPath><clipPath id="bd7612d1d7"><path d="M 47.203125 38.828125 L 126.449219 38.828125 L 126.449219 118.074219 L 47.203125 118.074219 Z M 47.203125 38.828125 " clip-rule="nonzero"/></clipPath></defs><g clip-path="url(#866f281656)"><path fill="#ffffff" d="M 0.675781 0 L 464.203125 0 L 464.203125 157 L 0.675781 157 Z M 0.675781 0 " fill-opacity="1" fill-rule="nonzero"/><path fill="#ffffff" d="M 0.675781 0 L 464.203125 0 L 464.203125 157 L 0.675781 157 Z M 0.675781 0 " fill-opacity="1" fill-rule="nonzero"/></g><g clip-path="url(#1087127d2a)"><rect x="-46.487997" width="557.855964" fill="#ffffff" y="-15.75" height="189" fill-opacity="1"/></g><path fill="#6b6b62" d="M 145.148438 120.207031 L 145.148438 108.757812 L 147.46875 108.757812 L 147.46875 113.507812 L 149.101562 113.507812 L 152.078125 108.757812 L 154.726562 108.757812 L 151.042969 114.320312 L 154.71875 120.207031 L 152.011719 120.207031 L 149.1875 115.640625 L 147.46875 115.640625 L 147.46875 120.207031 Z M 145.148438 120.207031 " fill-opacity="1" fill-rule="nonzero"/><path fill="#6b6b62" d="M 164.277344 120.335938 C 163.101562 120.335938 162.09375 120.089844 161.25 119.59375 C 160.40625 119.101562 159.757812 118.414062 159.308594 117.53125 C 158.859375 116.652344 158.632812 115.636719 158.632812 114.496094 C 158.632812 113.328125 158.863281 112.304688 159.324219 111.421875 C 159.78125 110.539062 160.4375 109.851562 161.289062 109.359375 C 162.140625 108.863281 163.152344 108.617188 164.324219 108.617188 C 165.492188 108.617188 166.496094 108.863281 167.339844 109.347656 C 168.179688 109.835938 168.832031 110.519531 169.292969 111.394531 C 169.75 112.269531 169.980469 113.285156 169.980469 114.445312 C 169.980469 115.589844 169.753906 116.605469 169.296875 117.492188 C 168.839844 118.378906 168.1875 119.078125 167.335938 119.582031 C 166.484375 120.085938 165.464844 120.335938 164.277344 120.335938 Z M 164.316406 118.164062 C 165.09375 118.164062 165.722656 117.984375 166.210938 117.628906 C 166.695312 117.273438 167.050781 116.8125 167.273438 116.25 C 167.496094 115.691406 167.609375 115.105469 167.609375 114.496094 C 167.609375 114.039062 167.546875 113.589844 167.421875 113.148438 C 167.296875 112.710938 167.105469 112.3125 166.84375 111.957031 C 166.582031 111.601562 166.238281 111.316406 165.820312 111.105469 C 165.402344 110.894531 164.898438 110.789062 164.304688 110.789062 C 163.539062 110.789062 162.914062 110.964844 162.425781 111.320312 C 161.9375 111.671875 161.578125 112.128906 161.347656 112.6875 C 161.117188 113.25 161 113.847656 161 114.484375 C 161 115.117188 161.117188 115.714844 161.347656 116.273438 C 161.582031 116.835938 161.941406 117.289062 162.433594 117.640625 C 162.925781 117.988281 163.550781 118.164062 164.316406 118.164062 Z M 164.316406 118.164062 " fill-opacity="1" fill-rule="nonzero"/><path fill="#6b6b62" d="M 174.988281 120.207031 L 174.988281 108.757812 L 177.308594 108.757812 L 177.308594 113.496094 L 182.261719 113.496094 L 182.261719 108.757812 L 184.582031 108.757812 L 184.582031 120.207031 L 182.261719 120.207031 L 182.261719 115.628906 L 177.308594 115.628906 L 177.308594 120.207031 Z M 174.988281 120.207031 " fill-opacity="1" fill-rule="nonzero"/><path fill="#6b6b62" d="M 195.128906 120.335938 C 193.945312 120.335938 192.945312 120.09375 192.117188 119.613281 C 191.292969 119.128906 190.667969 118.453125 190.246094 117.582031 C 189.820312 116.707031 189.605469 115.6875 189.605469 114.523438 C 189.605469 113.34375 189.824219 112.3125 190.261719 111.425781 C 190.699219 110.539062 191.328125 109.851562 192.148438 109.355469 C 192.972656 108.863281 193.960938 108.617188 195.113281 108.617188 C 195.988281 108.617188 196.769531 108.769531 197.457031 109.066406 C 198.144531 109.367188 198.703125 109.804688 199.132812 110.378906 C 199.5625 110.953125 199.828125 111.660156 199.9375 112.507812 L 197.707031 112.507812 C 197.566406 111.972656 197.28125 111.550781 196.851562 111.246094 C 196.425781 110.941406 195.859375 110.789062 195.152344 110.789062 C 194.382812 110.789062 193.765625 110.964844 193.304688 111.316406 C 192.84375 111.667969 192.507812 112.121094 192.304688 112.671875 C 192.101562 113.226562 192 113.808594 192 114.425781 C 192 115.0625 192.105469 115.664062 192.320312 116.234375 C 192.535156 116.808594 192.878906 117.273438 193.351562 117.628906 C 193.824219 117.984375 194.4375 118.164062 195.199219 118.164062 C 195.664062 118.164062 196.070312 118.097656 196.421875 117.960938 C 196.773438 117.828125 197.066406 117.632812 197.300781 117.375 C 197.535156 117.117188 197.695312 116.808594 197.785156 116.457031 L 200.101562 116.457031 C 199.996094 117.289062 199.710938 117.996094 199.25 118.574219 C 198.785156 119.152344 198.195312 119.589844 197.484375 119.890625 C 196.773438 120.1875 195.988281 120.335938 195.128906 120.335938 Z M 195.128906 120.335938 " fill-opacity="1" fill-rule="nonzero"/><path fill="#6b6b62" d="M 207.542969 120.207031 L 207.542969 110.898438 L 204.035156 110.898438 L 204.035156 108.757812 L 213.382812 108.757812 L 213.382812 110.898438 L 209.867188 110.898438 L 209.867188 120.207031 Z M 207.542969 120.207031 " fill-opacity="1" fill-rule="nonzero"/><path fill="#6b6b62" d="M 217.960938 120.207031 L 217.960938 108.757812 L 222.433594 108.757812 C 223.308594 108.757812 224.070312 108.886719 224.71875 109.148438 C 225.367188 109.414062 225.875 109.832031 226.234375 110.410156 C 226.59375 110.984375 226.773438 111.753906 226.773438 112.714844 C 226.773438 113.613281 226.578125 114.367188 226.183594 114.96875 C 225.789062 115.570312 225.25 116.023438 224.570312 116.320312 C 223.890625 116.617188 223.117188 116.765625 222.25 116.765625 L 220.285156 116.765625 L 220.285156 120.207031 Z M 220.285156 114.691406 L 222.222656 114.691406 C 222.910156 114.691406 223.457031 114.527344 223.863281 114.199219 C 224.265625 113.871094 224.46875 113.371094 224.46875 112.699219 C 224.46875 112.097656 224.300781 111.648438 223.957031 111.347656 C 223.613281 111.050781 223.074219 110.898438 222.328125 110.898438 L 220.285156 110.898438 Z M 220.285156 114.691406 " fill-opacity="1" fill-rule="nonzero"/><path fill="#6b6b62" d="M 232.367188 120.214844 L 232.367188 118.003906 C 232.847656 118.003906 233.246094 117.976562 233.558594 117.921875 C 233.875 117.871094 234.144531 117.761719 234.371094 117.597656 C 234.597656 117.429688 234.808594 117.183594 235.007812 116.855469 L 230.652344 108.757812 L 233.359375 108.757812 L 236.226562 114.621094 L 238.554688 108.757812 L 241.035156 108.757812 L 238.332031 115.0625 C 238.15625 115.464844 237.972656 115.882812 237.78125 116.320312 C 237.585938 116.757812 237.375 117.183594 237.152344 117.59375 C 236.929688 118.007812 236.6875 118.382812 236.421875 118.71875 C 236.15625 119.058594 235.867188 119.328125 235.550781 119.535156 C 235.164062 119.785156 234.714844 119.960938 234.203125 120.0625 C 233.6875 120.164062 233.078125 120.214844 232.367188 120.214844 Z M 232.367188 120.214844 " fill-opacity="1" fill-rule="nonzero"/><path fill="#6b6b62" d="M 245.417969 120.207031 L 245.417969 108.757812 L 247.738281 108.757812 L 247.738281 113.507812 L 249.371094 113.507812 L 252.347656 108.757812 L 254.992188 108.757812 L 251.308594 114.320312 L 254.988281 120.207031 L 252.28125 120.207031 L 249.453125 115.640625 L 247.738281 115.640625 L 247.738281 120.207031 Z M 245.417969 120.207031 " fill-opacity="1" fill-rule="nonzero"/><path fill="#6b6b62" d="M 261.957031 120.207031 L 261.957031 110.898438 L 258.449219 110.898438 L 258.449219 108.757812 L 267.796875 108.757812 L 267.796875 110.898438 L 264.277344 110.898438 L 264.277344 120.207031 Z M 261.957031 120.207031 " fill-opacity="1" fill-rule="nonzero"/><path fill="#6b6b62" d="M 272.375 120.207031 L 272.375 108.757812 L 274.695312 108.757812 L 274.695312 116.296875 L 280.179688 108.757812 L 282.15625 108.757812 L 282.15625 120.207031 L 279.835938 120.207031 L 279.835938 112.765625 L 274.34375 120.207031 Z M 272.375 120.207031 " fill-opacity="1" fill-rule="nonzero"/><path fill="#6b6b62" d="M 287.78125 120.207031 L 287.78125 108.757812 L 292.804688 108.757812 C 293.324219 108.757812 293.804688 108.804688 294.242188 108.902344 C 294.679688 109.003906 295.0625 109.164062 295.386719 109.394531 C 295.710938 109.625 295.960938 109.925781 296.140625 110.308594 C 296.324219 110.6875 296.414062 111.164062 296.414062 111.738281 C 296.414062 112.214844 296.304688 112.660156 296.082031 113.074219 C 295.863281 113.484375 295.542969 113.796875 295.125 114.011719 C 295.691406 114.195312 296.132812 114.511719 296.453125 114.972656 C 296.777344 115.429688 296.9375 116.023438 296.9375 116.746094 C 296.9375 117.425781 296.8125 117.992188 296.566406 118.441406 C 296.316406 118.886719 295.976562 119.242188 295.546875 119.5 C 295.113281 119.761719 294.621094 119.941406 294.0625 120.046875 C 293.507812 120.152344 292.921875 120.207031 292.308594 120.207031 Z M 290.101562 118.074219 L 292.492188 118.074219 C 292.78125 118.074219 293.054688 118.050781 293.308594 118.007812 C 293.5625 117.964844 293.789062 117.890625 293.984375 117.789062 C 294.179688 117.6875 294.335938 117.546875 294.445312 117.363281 C 294.554688 117.179688 294.609375 116.953125 294.609375 116.683594 C 294.609375 116.429688 294.5625 116.21875 294.472656 116.054688 C 294.382812 115.886719 294.253906 115.75 294.089844 115.644531 C 293.925781 115.539062 293.730469 115.464844 293.503906 115.421875 C 293.277344 115.378906 293.03125 115.355469 292.765625 115.355469 L 290.101562 115.355469 Z M 290.101562 113.433594 L 292.214844 113.433594 C 292.511719 113.433594 292.777344 113.40625 293.011719 113.347656 C 293.25 113.289062 293.445312 113.203125 293.609375 113.085938 C 293.769531 112.96875 293.894531 112.828125 293.984375 112.660156 C 294.070312 112.492188 294.113281 112.289062 294.113281 112.058594 C 294.113281 111.742188 294.042969 111.503906 293.90625 111.335938 C 293.765625 111.171875 293.574219 111.054688 293.324219 110.988281 C 293.078125 110.921875 292.789062 110.890625 292.460938 110.890625 L 290.101562 110.890625 Z M 290.101562 113.433594 " fill-opacity="1" fill-rule="nonzero"/><path fill="#6b6b62" d="M 301.976562 120.207031 L 301.976562 108.757812 L 304.300781 108.757812 L 304.300781 113.496094 L 309.25 113.496094 L 309.25 108.757812 L 311.570312 108.757812 L 311.570312 120.207031 L 309.25 120.207031 L 309.25 115.628906 L 304.300781 115.628906 L 304.300781 120.207031 Z M 301.976562 120.207031 " fill-opacity="1" fill-rule="nonzero"/><path fill="#6b6b62" d="M 317.226562 120.207031 L 317.226562 108.757812 L 319.546875 108.757812 L 319.546875 120.207031 Z M 317.226562 120.207031 " fill-opacity="1" fill-rule="nonzero"/><path fill="#6b6b62" d="M 332.972656 120.207031 L 332.972656 108.757812 L 337.445312 108.757812 C 338.316406 108.757812 339.078125 108.886719 339.730469 109.148438 C 340.378906 109.414062 340.882812 109.832031 341.246094 110.410156 C 341.605469 110.984375 341.785156 111.753906 341.785156 112.714844 C 341.785156 113.613281 341.585938 114.367188 341.191406 114.96875 C 340.796875 115.570312 340.261719 116.023438 339.582031 116.320312 C 338.902344 116.617188 338.125 116.765625 337.257812 116.765625 L 335.292969 116.765625 L 335.292969 120.207031 Z M 335.292969 114.691406 L 337.234375 114.691406 C 337.917969 114.691406 338.464844 114.527344 338.871094 114.199219 C 339.277344 113.871094 339.480469 113.371094 339.480469 112.699219 C 339.480469 112.097656 339.308594 111.648438 338.96875 111.347656 C 338.625 111.050781 338.082031 110.898438 337.339844 110.898438 L 335.292969 110.898438 Z M 335.292969 114.691406 " fill-opacity="1" fill-rule="nonzero"/><path fill="#6b6b62" d="M 346.722656 120.207031 L 346.722656 108.757812 L 349.042969 108.757812 L 349.042969 120.207031 Z M 346.722656 120.207031 " fill-opacity="1" fill-rule="nonzero"/><path fill="#6b6b62" d="M 354.6875 120.207031 L 354.6875 108.757812 L 357.007812 108.757812 L 357.007812 118.074219 L 360.363281 118.074219 L 360.363281 108.757812 L 362.6875 108.757812 L 362.6875 118.074219 L 366.042969 118.074219 L 366.042969 108.757812 L 368.363281 108.757812 L 368.363281 120.207031 Z M 354.6875 120.207031 " fill-opacity="1" fill-rule="nonzero"/><path fill="#6b6b62" d="M 374.015625 120.207031 L 374.015625 108.757812 L 382.277344 108.757812 L 382.277344 110.898438 L 376.335938 110.898438 L 376.335938 113.488281 L 381.421875 113.488281 L 381.421875 115.558594 L 376.335938 115.558594 L 376.335938 118.074219 L 382.277344 118.074219 L 382.277344 120.207031 Z M 374.015625 120.207031 " fill-opacity="1" fill-rule="nonzero"/><path fill="#6b6b62" d="M 387.277344 120.207031 L 387.277344 108.757812 L 389.597656 108.757812 L 389.597656 113.496094 L 394.550781 113.496094 L 394.550781 108.757812 L 396.871094 108.757812 L 396.871094 120.207031 L 394.550781 120.207031 L 394.550781 115.628906 L 389.597656 115.628906 L 389.597656 120.207031 Z M 387.277344 120.207031 " fill-opacity="1" fill-rule="nonzero"/><path fill="#6b6b62" d="M 402.527344 120.207031 L 402.527344 108.757812 L 404.847656 108.757812 L 404.847656 113.496094 L 409.796875 113.496094 L 409.796875 108.757812 L 412.121094 108.757812 L 412.121094 120.207031 L 409.796875 120.207031 L 409.796875 115.628906 L 404.847656 115.628906 L 404.847656 120.207031 Z M 402.527344 120.207031 " fill-opacity="1" fill-rule="nonzero"/><path fill="#6b6b62" d="M 417.289062 120.207031 L 420.171875 115.921875 C 419.363281 115.671875 418.738281 115.257812 418.296875 114.683594 C 417.855469 114.105469 417.636719 113.367188 417.636719 112.460938 C 417.636719 111.757812 417.757812 111.167969 417.996094 110.691406 C 418.234375 110.214844 418.566406 109.835938 418.984375 109.550781 C 419.40625 109.265625 419.894531 109.0625 420.453125 108.941406 C 421.007812 108.816406 421.601562 108.757812 422.226562 108.757812 L 426.710938 108.757812 L 426.710938 120.207031 L 424.390625 120.207031 L 424.390625 116.308594 L 422.464844 116.308594 L 420.027344 120.207031 Z M 422.25 114.242188 L 424.390625 114.242188 L 424.390625 110.898438 L 422.046875 110.898438 C 421.617188 110.898438 421.246094 110.953125 420.933594 111.0625 C 420.617188 111.171875 420.371094 111.34375 420.199219 111.582031 C 420.023438 111.820312 419.933594 112.136719 419.933594 112.53125 C 419.933594 112.988281 420.046875 113.339844 420.273438 113.585938 C 420.503906 113.835938 420.792969 114.003906 421.152344 114.101562 C 421.507812 114.195312 421.875 114.242188 422.25 114.242188 Z M 422.25 114.242188 " fill-opacity="1" fill-rule="nonzero"/><g clip-path="url(#46beea38f1)"><rect x="-46.487997" width="557.855964" fill="#ffffff" y="-15.75" height="189" fill-opacity="1"/></g><path fill="#0f0f0e" d="M 145.28125 94.902344 L 145.28125 44.175781 L 165.808594 44.175781 C 169.722656 44.175781 173.152344 44.746094 176.09375 45.890625 C 179.035156 47.03125 181.335938 48.890625 182.992188 51.472656 C 184.648438 54.050781 185.476562 57.539062 185.476562 61.933594 C 185.476562 66.003906 184.585938 69.394531 182.804688 72.105469 C 181.023438 74.8125 178.605469 76.832031 175.550781 78.160156 C 172.492188 79.488281 169.027344 80.152344 165.148438 80.152344 L 156.898438 80.152344 L 156.898438 94.902344 Z M 156.898438 69.789062 L 165.09375 69.789062 C 167.851562 69.789062 170.027344 69.128906 171.617188 67.804688 C 173.207031 66.480469 174.003906 64.523438 174.003906 61.933594 C 174.003906 59.601562 173.320312 57.855469 171.953125 56.6875 C 170.589844 55.523438 168.367188 54.941406 165.292969 54.941406 L 156.898438 54.941406 Z M 156.898438 69.789062 " fill-opacity="1" fill-rule="nonzero"/><path fill="#0f0f0e" d="M 191.46875 94.902344 L 191.46875 44.175781 L 228.871094 44.175781 L 228.871094 54.941406 L 203.085938 54.941406 L 203.085938 64.542969 L 224.757812 64.542969 L 224.757812 74.863281 L 203.085938 74.863281 L 203.085938 84.195312 L 228.871094 84.195312 L 228.871094 94.902344 Z M 191.46875 94.902344 " fill-opacity="1" fill-rule="nonzero"/><path fill="#0f0f0e" d="M 257.179688 95.472656 C 251.9375 95.472656 247.460938 94.421875 243.75 92.3125 C 240.039062 90.207031 237.214844 87.226562 235.269531 83.371094 C 233.328125 79.515625 232.355469 74.984375 232.355469 69.773438 C 232.355469 64.460938 233.355469 59.839844 235.363281 55.90625 C 237.367188 51.976562 240.214844 48.933594 243.90625 46.777344 C 247.597656 44.621094 251.976562 43.546875 257.035156 43.546875 C 260.953125 43.546875 264.488281 44.234375 267.644531 45.617188 C 270.800781 46.996094 273.367188 49.039062 275.34375 51.742188 C 277.320312 54.449219 278.523438 57.835938 278.953125 61.90625 L 267.894531 61.90625 C 267.292969 59.574219 266.125 57.753906 264.390625 56.445312 C 262.660156 55.136719 260.308594 54.480469 257.335938 54.480469 C 254.128906 54.480469 251.570312 55.207031 249.667969 56.652344 C 247.761719 58.101562 246.398438 59.949219 245.578125 62.199219 C 244.753906 64.449219 244.34375 66.808594 244.34375 69.273438 C 244.34375 71.777344 244.777344 74.199219 245.648438 76.539062 C 246.515625 78.882812 247.921875 80.800781 249.859375 82.296875 C 251.796875 83.789062 254.363281 84.539062 257.550781 84.539062 C 259.480469 84.539062 261.167969 84.25 262.617188 83.679688 C 264.0625 83.105469 265.265625 82.265625 266.226562 81.15625 C 267.183594 80.046875 267.847656 78.71875 268.210938 77.171875 L 279.597656 77.171875 C 279.226562 81.164062 277.976562 84.527344 275.851562 87.253906 C 273.726562 89.980469 271.035156 92.035156 267.78125 93.410156 C 264.523438 94.785156 260.988281 95.472656 257.179688 95.472656 Z M 257.179688 95.472656 " fill-opacity="1" fill-rule="nonzero"/><path fill="#0f0f0e" d="M 296.601562 94.902344 L 296.601562 54.941406 L 281.316406 54.941406 L 281.316406 44.175781 L 323.558594 44.175781 L 323.558594 54.941406 L 308.21875 54.941406 L 308.21875 94.902344 Z M 296.601562 94.902344 " fill-opacity="1" fill-rule="nonzero"/><path fill="#0f0f0e" d="M 350.566406 95.472656 C 345.390625 95.472656 340.902344 94.390625 337.101562 92.222656 C 333.300781 90.050781 330.371094 87.019531 328.316406 83.121094 C 326.257812 79.21875 325.226562 74.714844 325.226562 69.601562 C 325.226562 64.367188 326.285156 59.800781 328.402344 55.902344 C 330.515625 52.003906 333.492188 48.96875 337.332031 46.800781 C 341.171875 44.628906 345.679688 43.546875 350.855469 43.546875 C 355.992188 43.546875 360.460938 44.609375 364.253906 46.742188 C 368.050781 48.871094 371.007812 51.867188 373.121094 55.730469 C 375.238281 59.589844 376.296875 64.117188 376.296875 69.316406 C 376.296875 74.429688 375.246094 78.953125 373.152344 82.890625 C 371.054688 86.828125 368.082031 89.910156 364.226562 92.132812 C 360.375 94.359375 355.820312 95.472656 350.566406 95.472656 Z M 350.796875 84.539062 C 354.042969 84.539062 356.671875 83.789062 358.675781 82.296875 C 360.679688 80.800781 362.140625 78.90625 363.050781 76.613281 C 363.964844 74.320312 364.421875 71.984375 364.421875 69.601562 C 364.421875 67.824219 364.167969 66.050781 363.667969 64.277344 C 363.167969 62.503906 362.382812 60.878906 361.3125 59.398438 C 360.242188 57.917969 358.839844 56.726562 357.101562 55.828125 C 355.363281 54.929688 353.242188 54.480469 350.738281 54.480469 C 347.539062 54.480469 344.9375 55.210938 342.925781 56.675781 C 340.914062 58.136719 339.441406 60.015625 338.5 62.308594 C 337.558594 64.601562 337.089844 67.011719 337.089844 69.546875 C 337.089844 72.070312 337.566406 74.476562 338.519531 76.769531 C 339.476562 79.0625 340.96875 80.929688 342.996094 82.375 C 345.027344 83.816406 347.625 84.539062 350.796875 84.539062 Z M 350.796875 84.539062 " fill-opacity="1" fill-rule="nonzero"/><path fill="#0f0f0e" d="M 382.585938 94.902344 L 382.585938 44.175781 L 394.203125 44.175781 L 394.203125 64.441406 L 401.324219 64.441406 L 413.382812 44.175781 L 426.621094 44.175781 L 410.949219 68.644531 L 426.535156 94.902344 L 413.027344 94.902344 L 401.652344 75.148438 L 394.203125 75.148438 L 394.203125 94.902344 Z M 382.585938 94.902344 " fill-opacity="1" fill-rule="nonzero"/><g clip-path="url(#bd7612d1d7)"><path stroke-linecap="butt" transform="matrix(0.396242, 0, 0, 0.396242, 47.202105, 38.827285)" fill="none" stroke-linejoin="miter" d="M 41.99868 2.003342 L 158.000599 2.003342 C 159.311745 2.003342 160.613032 2.062491 161.924178 2.190648 C 163.225466 2.318806 164.516896 2.51597 165.808325 2.772285 C 167.089897 3.028599 168.36161 3.344063 169.613606 3.718676 C 170.865603 4.103147 172.097883 4.546768 173.310446 5.049538 C 174.513152 5.54245 175.696141 6.10437 176.859413 6.725439 C 178.012827 7.33665 179.136667 8.016869 180.221073 8.73652 C 181.315338 9.46603 182.360311 10.244831 183.37571 11.082782 C 184.391109 11.910874 185.357217 12.788257 186.283891 13.714932 C 187.210566 14.641606 188.087949 15.607714 188.916041 16.623113 C 189.753992 17.638512 190.532793 18.683485 191.262303 19.77775 C 191.981954 20.862156 192.662173 21.985996 193.273384 23.13941 C 193.894453 24.302682 194.456373 25.485671 194.959143 26.688377 C 195.452055 27.90094 195.895676 29.13322 196.280147 30.385217 C 196.65476 31.647072 196.980082 32.908926 197.226538 34.200356 C 197.482853 35.481927 197.680017 36.773357 197.808175 38.074645 C 197.936332 39.385791 197.995481 40.687078 197.995481 41.998224 L 197.995481 158.000143 C 197.995481 159.311289 197.936332 160.612576 197.808175 161.923722 C 197.680017 163.22501 197.482853 164.51644 197.226538 165.807869 C 196.980082 167.08944 196.65476 168.361153 196.280147 169.61315 C 195.895676 170.865147 195.452055 172.097427 194.959143 173.30999 C 194.456373 174.522554 193.894453 175.695685 193.273384 176.858957 C 192.662173 178.012371 191.981954 179.136211 191.262303 180.220617 C 190.532793 181.314882 189.753992 182.359855 188.916041 183.375254 C 188.087949 184.390653 187.210566 185.35676 186.283891 186.283435 C 185.357217 187.21011 184.391109 188.087493 183.37571 188.915585 C 182.360311 189.753536 181.315338 190.532337 180.221073 191.261847 C 179.136667 191.991356 178.012827 192.661717 176.859413 193.272928 C 175.696141 193.893997 174.513152 194.455917 173.310446 194.958687 C 172.097883 195.451599 170.865603 195.89522 169.613606 196.279691 C 168.36161 196.654304 167.089897 196.979626 165.808325 197.23594 C 164.516896 197.482396 163.225466 197.679561 161.924178 197.807718 C 160.613032 197.935876 159.311745 198.004883 158.000599 198.004883 L 41.99868 198.004883 C 40.687534 198.004883 39.386247 197.935876 38.075101 197.807718 C 36.773813 197.679561 35.482383 197.482396 34.200812 197.23594 C 32.909383 196.979626 31.63767 196.654304 30.385673 196.279691 C 29.133676 195.89522 27.901396 195.451599 26.688833 194.958687 C 25.486127 194.455917 24.303138 193.893997 23.139866 193.272928 C 21.986452 192.661717 20.862612 191.991356 19.778206 191.261847 C 18.683941 190.532337 17.638968 189.753536 16.623569 188.915585 C 15.60817 188.087493 14.642063 187.21011 13.715388 186.283435 C 12.788713 185.35676 11.91133 184.390653 11.083238 183.375254 C 10.245287 182.359855 9.466486 181.314882 8.736976 180.220617 C 8.017325 179.136211 7.337106 178.012371 6.725895 176.858957 C 6.104826 175.695685 5.542906 174.522554 5.040136 173.30999 C 4.547224 172.097427 4.103603 170.865147 3.719132 169.61315 C 3.344519 168.361153 3.029055 167.08944 2.772741 165.807869 C 2.516427 164.51644 2.319262 163.22501 2.191105 161.923722 C 2.062947 160.612576 2.003798 159.311289 2.003798 158.000143 L 2.003798 41.998224 C 2.003798 40.687078 2.062947 39.385791 2.191105 38.074645 C 2.319262 36.773357 2.516427 35.481927 2.772741 34.200356 C 3.029055 32.908926 3.344519 31.647072 3.719132 30.385217 C 4.103603 29.13322 4.547224 27.90094 5.040136 26.688377 C 5.542906 25.485671 6.104826 24.302682 6.725895 23.13941 C 7.337106 21.985996 8.017325 20.862156 8.736976 19.77775 C 9.466486 18.683485 10.245287 17.638512 11.083238 16.623113 C 11.91133 15.607714 12.788713 14.641606 13.715388 13.714932 C 14.642063 12.788257 15.60817 11.910874 16.623569 11.082782 C 17.638968 10.244831 18.683941 9.46603 19.778206 8.73652 C 20.862612 8.016869 21.986452 7.33665 23.139866 6.725439 C 24.303138 6.10437 25.486127 5.54245 26.688833 5.049538 C 27.901396 4.546768 29.133676 4.103147 30.385673 3.718676 C 31.63767 3.344063 32.909383 3.028599 34.200812 2.772285 C 35.482383 2.51597 36.773813 2.318806 38.075101 2.190648 C 39.386247 2.062491 40.687534 2.003342 41.99868 2.003342 Z M 41.99868 2.003342 " stroke="#0f0f0e" stroke-width="6" stroke-opacity="1" stroke-miterlimit="4"/></g><path fill="#0f0f0e" d="M 77.117188 64.582031 L 96.535156 64.582031 C 96.808594 64.582031 97.078125 64.609375 97.347656 64.664062 C 97.613281 64.714844 97.875 64.796875 98.125 64.898438 C 98.378906 65.003906 98.617188 65.132812 98.847656 65.285156 C 99.074219 65.4375 99.28125 65.609375 99.476562 65.800781 C 99.667969 65.996094 99.84375 66.203125 99.992188 66.433594 C 100.144531 66.660156 100.273438 66.898438 100.378906 67.152344 C 100.484375 67.402344 100.5625 67.664062 100.613281 67.933594 C 100.667969 68.199219 100.695312 68.46875 100.695312 68.742188 L 100.695312 88.160156 C 100.695312 88.433594 100.667969 88.703125 100.613281 88.972656 C 100.5625 89.238281 100.484375 89.5 100.378906 89.75 C 100.273438 90.003906 100.144531 90.242188 99.992188 90.472656 C 99.84375 90.699219 99.667969 90.90625 99.476562 91.101562 C 99.28125 91.292969 99.074219 91.46875 98.847656 91.617188 C 98.617188 91.769531 98.378906 91.898438 98.125 92.003906 C 97.875 92.109375 97.613281 92.1875 97.347656 92.238281 C 97.078125 92.292969 96.808594 92.320312 96.535156 92.320312 L 77.117188 92.320312 C 76.84375 92.320312 76.574219 92.292969 76.308594 92.238281 C 76.039062 92.1875 75.777344 92.109375 75.527344 92.003906 C 75.273438 91.898438 75.035156 91.769531 74.808594 91.617188 C 74.578125 91.46875 74.371094 91.292969 74.175781 91.101562 C 73.984375 90.90625 73.8125 90.699219 73.660156 90.472656 C 73.507812 90.242188 73.378906 90.003906 73.273438 89.75 C 73.171875 89.5 73.089844 89.238281 73.039062 88.972656 C 72.984375 88.703125 72.957031 88.433594 72.957031 88.160156 L 72.957031 68.742188 C 72.957031 68.46875 72.984375 68.199219 73.039062 67.933594 C 73.089844 67.664062 73.171875 67.402344 73.273438 67.152344 C 73.378906 66.898438 73.507812 66.660156 73.660156 66.433594 C 73.8125 66.203125 73.984375 65.996094 74.175781 65.800781 C 74.371094 65.609375 74.578125 65.4375 74.808594 65.285156 C 75.035156 65.132812 75.273438 65.003906 75.527344 64.898438 C 75.777344 64.796875 76.039062 64.714844 76.308594 64.664062 C 76.574219 64.609375 76.84375 64.582031 77.117188 64.582031 Z M 77.117188 64.582031 " fill-opacity="1" fill-rule="nonzero"/></svg>