<svg xmlns="http://www.w3.org/2000/svg" xmlns:xlink="http://www.w3.org/1999/xlink" width="620" zoomAndPan="magnify" viewBox="0 0 464.87997 157.5" height="210" preserveAspectRatio="xMidYMid meet" version="1.0"><defs><clipPath id="daab25c63d"><path d="M 0.675781 0 L 464.085938 0 L 464.085938 157 L 0.675781 157 Z M 0.675781 0 " clip-rule="nonzero"/></clipPath><clipPath id="5e05579ac9"><path d="M 133.191406 99.109375 L 434.484375 99.109375 L 434.484375 134.996094 L 133.191406 134.996094 Z M 133.191406 99.109375 " clip-rule="nonzero"/></clipPath><clipPath id="1d2054b7f1"><path d="M 126.550781 33.261719 L 448.777344 33.261719 L 448.777344 104.285156 L 126.550781 104.285156 Z M 126.550781 33.261719 " clip-rule="nonzero"/></clipPath><clipPath id="d3905a1181"><path d="M 48.417969 43.667969 L 126.917969 43.667969 L 126.917969 122.171875 L 48.417969 122.171875 Z M 48.417969 43.667969 " clip-rule="nonzero"/></clipPath></defs><g clip-path="url(#daab25c63d)"><path fill="#ffffff" d="M 0.675781 0 L 464.203125 0 L 464.203125 157 L 0.675781 157 Z M 0.675781 0 " fill-opacity="1" fill-rule="nonzero"/><path fill="#ffffff" d="M 0.675781 0 L 464.203125 0 L 464.203125 157 L 0.675781 157 Z M 0.675781 0 " fill-opacity="1" fill-rule="nonzero"/></g><g clip-path="url(#5e05579ac9)"><rect x="-46.487997" width="557.855964" fill="#ffffff" y="-15.75" height="189" fill-opacity="1"/></g><path fill="#6b6b62" d="M 145.148438 120.207031 L 145.148438 108.757812 L 147.46875 108.757812 L 147.46875 113.507812 L 149.101562 113.507812 L 152.078125 108.757812 L 154.726562 108.757812 L 151.042969 114.320312 L 154.71875 120.207031 L 152.011719 120.207031 L 149.1875 115.640625 L 147.46875 115.640625 L 147.46875 120.207031 Z M 145.148438 120.207031 " fill-opacity="1" fill-rule="nonzero"/><path fill="#6b6b62" d="M 164.277344 120.335938 C 163.101562 120.335938 162.09375 120.089844 161.25 119.59375 C 160.40625 119.101562 159.757812 118.414062 159.308594 117.53125 C 158.859375 116.652344 158.632812 115.636719 158.632812 114.496094 C 158.632812 113.328125 158.863281 112.304688 159.324219 111.421875 C 159.78125 110.539062 160.4375 109.851562 161.289062 109.359375 C 162.140625 108.863281 163.152344 108.617188 164.324219 108.617188 C 165.492188 108.617188 166.496094 108.863281 167.339844 109.347656 C 168.179688 109.835938 168.832031 110.519531 169.292969 111.394531 C 169.75 112.269531 169.980469 113.285156 169.980469 114.445312 C 169.980469 115.589844 169.753906 116.605469 169.296875 117.492188 C 168.839844 118.378906 168.1875 119.078125 167.335938 119.582031 C 166.484375 120.085938 165.464844 120.335938 164.277344 120.335938 Z M 164.316406 118.164062 C 165.09375 118.164062 165.722656 117.984375 166.210938 117.628906 C 166.695312 117.273438 167.050781 116.8125 167.273438 116.25 C 167.496094 115.691406 167.609375 115.105469 167.609375 114.496094 C 167.609375 114.039062 167.546875 113.589844 167.421875 113.148438 C 167.296875 112.710938 167.105469 112.3125 166.84375 111.957031 C 166.582031 111.601562 166.238281 111.316406 165.820312 111.105469 C 165.402344 110.894531 164.898438 110.789062 164.304688 110.789062 C 163.539062 110.789062 162.914062 110.964844 162.425781 111.320312 C 161.9375 111.671875 161.578125 112.128906 161.347656 112.6875 C 161.117188 113.25 161 113.847656 161 114.484375 C 161 115.117188 161.117188 115.714844 161.347656 116.273438 C 161.582031 116.835938 161.941406 117.289062 162.433594 117.640625 C 162.925781 117.988281 163.550781 118.164062 164.316406 118.164062 Z M 164.316406 118.164062 " fill-opacity="1" fill-rule="nonzero"/><path fill="#6b6b62" d="M 174.988281 120.207031 L 174.988281 108.757812 L 177.308594 108.757812 L 177.308594 113.496094 L 182.261719 113.496094 L 182.261719 108.757812 L 184.582031 108.757812 L 184.582031 120.207031 L 182.261719 120.207031 L 182.261719 115.628906 L 177.308594 115.628906 L 177.308594 120.207031 Z M 174.988281 120.207031 " fill-opacity="1" fill-rule="nonzero"/><path fill="#6b6b62" d="M 195.128906 120.335938 C 193.945312 120.335938 192.945312 120.09375 192.117188 119.613281 C 191.292969 119.128906 190.667969 118.453125 190.246094 117.582031 C 189.820312 116.707031 189.605469 115.6875 189.605469 114.523438 C 189.605469 113.34375 189.824219 112.3125 190.261719 111.425781 C 190.699219 110.539062 191.328125 109.851562 192.148438 109.355469 C 192.972656 108.863281 193.960938 108.617188 195.113281 108.617188 C 195.988281 108.617188 196.769531 108.769531 197.457031 109.066406 C 198.144531 109.367188 198.703125 109.804688 199.132812 110.378906 C 199.5625 110.953125 199.828125 111.660156 199.9375 112.507812 L 197.707031 112.507812 C 197.566406 111.972656 197.28125 111.550781 196.851562 111.246094 C 196.425781 110.941406 195.859375 110.789062 195.152344 110.789062 C 194.382812 110.789062 193.765625 110.964844 193.304688 111.316406 C 192.84375 111.667969 192.507812 112.121094 192.304688 112.671875 C 192.101562 113.226562 192 113.808594 192 114.425781 C 192 115.0625 192.105469 115.664062 192.320312 116.234375 C 192.535156 116.808594 192.878906 117.273438 193.351562 117.628906 C 193.824219 117.984375 194.4375 118.164062 195.199219 118.164062 C 195.664062 118.164062 196.070312 118.097656 196.421875 117.960938 C 196.773438 117.828125 197.066406 117.632812 197.300781 117.375 C 197.535156 117.117188 197.695312 116.808594 197.785156 116.457031 L 200.101562 116.457031 C 199.996094 117.289062 199.710938 117.996094 199.25 118.574219 C 198.785156 119.152344 198.195312 119.589844 197.484375 119.890625 C 196.773438 120.1875 195.988281 120.335938 195.128906 120.335938 Z M 195.128906 120.335938 " fill-opacity="1" fill-rule="nonzero"/><path fill="#6b6b62" d="M 207.542969 120.207031 L 207.542969 110.898438 L 204.035156 110.898438 L 204.035156 108.757812 L 213.382812 108.757812 L 213.382812 110.898438 L 209.867188 110.898438 L 209.867188 120.207031 Z M 207.542969 120.207031 " fill-opacity="1" fill-rule="nonzero"/><path fill="#6b6b62" d="M 217.960938 120.207031 L 217.960938 108.757812 L 222.433594 108.757812 C 223.308594 108.757812 224.070312 108.886719 224.71875 109.148438 C 225.367188 109.414062 225.875 109.832031 226.234375 110.410156 C 226.59375 110.984375 226.773438 111.753906 226.773438 112.714844 C 226.773438 113.613281 226.578125 114.367188 226.183594 114.96875 C 225.789062 115.570312 225.25 116.023438 224.570312 116.320312 C 223.890625 116.617188 223.117188 116.765625 222.25 116.765625 L 220.285156 116.765625 L 220.285156 120.207031 Z M 220.285156 114.691406 L 222.222656 114.691406 C 222.910156 114.691406 223.457031 114.527344 223.863281 114.199219 C 224.265625 113.871094 224.46875 113.371094 224.46875 112.699219 C 224.46875 112.097656 224.300781 111.648438 223.957031 111.347656 C 223.613281 111.050781 223.074219 110.898438 222.328125 110.898438 L 220.285156 110.898438 Z M 220.285156 114.691406 " fill-opacity="1" fill-rule="nonzero"/><path fill="#6b6b62" d="M 232.367188 120.214844 L 232.367188 118.003906 C 232.847656 118.003906 233.246094 117.976562 233.558594 117.921875 C 233.875 117.871094 234.144531 117.761719 234.371094 117.597656 C 234.597656 117.429688 234.808594 117.183594 235.007812 116.855469 L 230.652344 108.757812 L 233.359375 108.757812 L 236.226562 114.621094 L 238.554688 108.757812 L 241.035156 108.757812 L 238.332031 115.0625 C 238.15625 115.464844 237.972656 115.882812 237.78125 116.320312 C 237.585938 116.757812 237.375 117.183594 237.152344 117.59375 C 236.929688 118.007812 236.6875 118.382812 236.421875 118.71875 C 236.15625 119.058594 235.867188 119.328125 235.550781 119.535156 C 235.164062 119.785156 234.714844 119.960938 234.203125 120.0625 C 233.6875 120.164062 233.078125 120.214844 232.367188 120.214844 Z M 232.367188 120.214844 " fill-opacity="1" fill-rule="nonzero"/><path fill="#6b6b62" d="M 245.417969 120.207031 L 245.417969 108.757812 L 247.738281 108.757812 L 247.738281 113.507812 L 249.371094 113.507812 L 252.347656 108.757812 L 254.992188 108.757812 L 251.308594 114.320312 L 254.988281 120.207031 L 252.28125 120.207031 L 249.453125 115.640625 L 247.738281 115.640625 L 247.738281 120.207031 Z M 245.417969 120.207031 " fill-opacity="1" fill-rule="nonzero"/><path fill="#6b6b62" d="M 261.957031 120.207031 L 261.957031 110.898438 L 258.449219 110.898438 L 258.449219 108.757812 L 267.796875 108.757812 L 267.796875 110.898438 L 264.277344 110.898438 L 264.277344 120.207031 Z M 261.957031 120.207031 " fill-opacity="1" fill-rule="nonzero"/><path fill="#6b6b62" d="M 272.375 120.207031 L 272.375 108.757812 L 274.695312 108.757812 L 274.695312 116.296875 L 280.179688 108.757812 L 282.15625 108.757812 L 282.15625 120.207031 L 279.835938 120.207031 L 279.835938 112.765625 L 274.34375 120.207031 Z M 272.375 120.207031 " fill-opacity="1" fill-rule="nonzero"/><path fill="#6b6b62" d="M 287.78125 120.207031 L 287.78125 108.757812 L 292.804688 108.757812 C 293.324219 108.757812 293.804688 108.804688 294.242188 108.902344 C 294.679688 109.003906 295.0625 109.164062 295.386719 109.394531 C 295.710938 109.625 295.960938 109.925781 296.140625 110.308594 C 296.324219 110.6875 296.414062 111.164062 296.414062 111.738281 C 296.414062 112.214844 296.304688 112.660156 296.082031 113.074219 C 295.863281 113.484375 295.542969 113.796875 295.125 114.011719 C 295.691406 114.195312 296.132812 114.511719 296.453125 114.972656 C 296.777344 115.429688 296.9375 116.023438 296.9375 116.746094 C 296.9375 117.425781 296.8125 117.992188 296.566406 118.441406 C 296.316406 118.886719 295.976562 119.242188 295.546875 119.5 C 295.113281 119.761719 294.621094 119.941406 294.0625 120.046875 C 293.507812 120.152344 292.921875 120.207031 292.308594 120.207031 Z M 290.101562 118.074219 L 292.492188 118.074219 C 292.78125 118.074219 293.054688 118.050781 293.308594 118.007812 C 293.5625 117.964844 293.789062 117.890625 293.984375 117.789062 C 294.179688 117.6875 294.335938 117.546875 294.445312 117.363281 C 294.554688 117.179688 294.609375 116.953125 294.609375 116.683594 C 294.609375 116.429688 294.5625 116.21875 294.472656 116.054688 C 294.382812 115.886719 294.253906 115.75 294.089844 115.644531 C 293.925781 115.539062 293.730469 115.464844 293.503906 115.421875 C 293.277344 115.378906 293.03125 115.355469 292.765625 115.355469 L 290.101562 115.355469 Z M 290.101562 113.433594 L 292.214844 113.433594 C 292.511719 113.433594 292.777344 113.40625 293.011719 113.347656 C 293.25 113.289062 293.445312 113.203125 293.609375 113.085938 C 293.769531 112.96875 293.894531 112.828125 293.984375 112.660156 C 294.070312 112.492188 294.113281 112.289062 294.113281 112.058594 C 294.113281 111.742188 294.042969 111.503906 293.90625 111.335938 C 293.765625 111.171875 293.574219 111.054688 293.324219 110.988281 C 293.078125 110.921875 292.789062 110.890625 292.460938 110.890625 L 290.101562 110.890625 Z M 290.101562 113.433594 " fill-opacity="1" fill-rule="nonzero"/><path fill="#6b6b62" d="M 301.976562 120.207031 L 301.976562 108.757812 L 304.300781 108.757812 L 304.300781 113.496094 L 309.25 113.496094 L 309.25 108.757812 L 311.570312 108.757812 L 311.570312 120.207031 L 309.25 120.207031 L 309.25 115.628906 L 304.300781 115.628906 L 304.300781 120.207031 Z M 301.976562 120.207031 " fill-opacity="1" fill-rule="nonzero"/><path fill="#6b6b62" d="M 317.226562 120.207031 L 317.226562 108.757812 L 319.546875 108.757812 L 319.546875 120.207031 Z M 317.226562 120.207031 " fill-opacity="1" fill-rule="nonzero"/><path fill="#6b6b62" d="M 332.972656 120.207031 L 332.972656 108.757812 L 337.445312 108.757812 C 338.316406 108.757812 339.078125 108.886719 339.730469 109.148438 C 340.378906 109.414062 340.882812 109.832031 341.246094 110.410156 C 341.605469 110.984375 341.785156 111.753906 341.785156 112.714844 C 341.785156 113.613281 341.585938 114.367188 341.191406 114.96875 C 340.796875 115.570312 340.261719 116.023438 339.582031 116.320312 C 338.902344 116.617188 338.125 116.765625 337.257812 116.765625 L 335.292969 116.765625 L 335.292969 120.207031 Z M 335.292969 114.691406 L 337.234375 114.691406 C 337.917969 114.691406 338.464844 114.527344 338.871094 114.199219 C 339.277344 113.871094 339.480469 113.371094 339.480469 112.699219 C 339.480469 112.097656 339.308594 111.648438 338.96875 111.347656 C 338.625 111.050781 338.082031 110.898438 337.339844 110.898438 L 335.292969 110.898438 Z M 335.292969 114.691406 " fill-opacity="1" fill-rule="nonzero"/><path fill="#6b6b62" d="M 346.722656 120.207031 L 346.722656 108.757812 L 349.042969 108.757812 L 349.042969 120.207031 Z M 346.722656 120.207031 " fill-opacity="1" fill-rule="nonzero"/><path fill="#6b6b62" d="M 354.6875 120.207031 L 354.6875 108.757812 L 357.007812 108.757812 L 357.007812 118.074219 L 360.363281 118.074219 L 360.363281 108.757812 L 362.6875 108.757812 L 362.6875 118.074219 L 366.042969 118.074219 L 366.042969 108.757812 L 368.363281 108.757812 L 368.363281 120.207031 Z M 354.6875 120.207031 " fill-opacity="1" fill-rule="nonzero"/><path fill="#6b6b62" d="M 374.015625 120.207031 L 374.015625 108.757812 L 382.277344 108.757812 L 382.277344 110.898438 L 376.335938 110.898438 L 376.335938 113.488281 L 381.421875 113.488281 L 381.421875 115.558594 L 376.335938 115.558594 L 376.335938 118.074219 L 382.277344 118.074219 L 382.277344 120.207031 Z M 374.015625 120.207031 " fill-opacity="1" fill-rule="nonzero"/><path fill="#6b6b62" d="M 387.277344 120.207031 L 387.277344 108.757812 L 389.597656 108.757812 L 389.597656 113.496094 L 394.550781 113.496094 L 394.550781 108.757812 L 396.871094 108.757812 L 396.871094 120.207031 L 394.550781 120.207031 L 394.550781 115.628906 L 389.597656 115.628906 L 389.597656 120.207031 Z M 387.277344 120.207031 " fill-opacity="1" fill-rule="nonzero"/><path fill="#6b6b62" d="M 402.527344 120.207031 L 402.527344 108.757812 L 404.847656 108.757812 L 404.847656 113.496094 L 409.796875 113.496094 L 409.796875 108.757812 L 412.121094 108.757812 L 412.121094 120.207031 L 409.796875 120.207031 L 409.796875 115.628906 L 404.847656 115.628906 L 404.847656 120.207031 Z M 402.527344 120.207031 " fill-opacity="1" fill-rule="nonzero"/><path fill="#6b6b62" d="M 417.289062 120.207031 L 420.171875 115.921875 C 419.363281 115.671875 418.738281 115.257812 418.296875 114.683594 C 417.855469 114.105469 417.636719 113.367188 417.636719 112.460938 C 417.636719 111.757812 417.757812 111.167969 417.996094 110.691406 C 418.234375 110.214844 418.566406 109.835938 418.984375 109.550781 C 419.40625 109.265625 419.894531 109.0625 420.453125 108.941406 C 421.007812 108.816406 421.601562 108.757812 422.226562 108.757812 L 426.710938 108.757812 L 426.710938 120.207031 L 424.390625 120.207031 L 424.390625 116.308594 L 422.464844 116.308594 L 420.027344 120.207031 Z M 422.25 114.242188 L 424.390625 114.242188 L 424.390625 110.898438 L 422.046875 110.898438 C 421.617188 110.898438 421.246094 110.953125 420.933594 111.0625 C 420.617188 111.171875 420.371094 111.34375 420.199219 111.582031 C 420.023438 111.820312 419.933594 112.136719 419.933594 112.53125 C 419.933594 112.988281 420.046875 113.339844 420.273438 113.585938 C 420.503906 113.835938 420.792969 114.003906 421.152344 114.101562 C 421.507812 114.195312 421.875 114.242188 422.25 114.242188 Z M 422.25 114.242188 " fill-opacity="1" fill-rule="nonzero"/><g clip-path="url(#1d2054b7f1)"><rect x="-46.487997" width="557.855964" fill="#ffffff" y="-15.75" height="189" fill-opacity="1"/></g><path fill="#0f0f0e" d="M 145.28125 94.902344 L 145.28125 44.175781 L 165.808594 44.175781 C 169.722656 44.175781 173.152344 44.746094 176.09375 45.890625 C 179.035156 47.03125 181.335938 48.890625 182.992188 51.472656 C 184.648438 54.050781 185.476562 57.539062 185.476562 61.933594 C 185.476562 66.003906 184.585938 69.394531 182.804688 72.105469 C 181.023438 74.8125 178.605469 76.832031 175.550781 78.160156 C 172.492188 79.488281 169.027344 80.152344 165.148438 80.152344 L 156.898438 80.152344 L 156.898438 94.902344 Z M 156.898438 69.789062 L 165.09375 69.789062 C 167.851562 69.789062 170.027344 69.128906 171.617188 67.804688 C 173.207031 66.480469 174.003906 64.523438 174.003906 61.933594 C 174.003906 59.601562 173.320312 57.855469 171.953125 56.6875 C 170.589844 55.523438 168.367188 54.941406 165.292969 54.941406 L 156.898438 54.941406 Z M 156.898438 69.789062 " fill-opacity="1" fill-rule="nonzero"/><path fill="#0f0f0e" d="M 191.46875 94.902344 L 191.46875 44.175781 L 228.871094 44.175781 L 228.871094 54.941406 L 203.085938 54.941406 L 203.085938 64.542969 L 224.757812 64.542969 L 224.757812 74.863281 L 203.085938 74.863281 L 203.085938 84.195312 L 228.871094 84.195312 L 228.871094 94.902344 Z M 191.46875 94.902344 " fill-opacity="1" fill-rule="nonzero"/><path fill="#0f0f0e" d="M 257.179688 95.472656 C 251.9375 95.472656 247.460938 94.421875 243.75 92.3125 C 240.039062 90.207031 237.214844 87.226562 235.269531 83.371094 C 233.328125 79.515625 232.355469 74.984375 232.355469 69.773438 C 232.355469 64.460938 233.355469 59.839844 235.363281 55.90625 C 237.367188 51.976562 240.214844 48.933594 243.90625 46.777344 C 247.597656 44.621094 251.976562 43.546875 257.035156 43.546875 C 260.953125 43.546875 264.488281 44.234375 267.644531 45.617188 C 270.800781 46.996094 273.367188 49.039062 275.34375 51.742188 C 277.320312 54.449219 278.523438 57.835938 278.953125 61.90625 L 267.894531 61.90625 C 267.292969 59.574219 266.125 57.753906 264.390625 56.445312 C 262.660156 55.136719 260.308594 54.480469 257.335938 54.480469 C 254.128906 54.480469 251.570312 55.207031 249.667969 56.652344 C 247.761719 58.101562 246.398438 59.949219 245.578125 62.199219 C 244.753906 64.449219 244.34375 66.808594 244.34375 69.273438 C 244.34375 71.777344 244.777344 74.199219 245.648438 76.539062 C 246.515625 78.882812 247.921875 80.800781 249.859375 82.296875 C 251.796875 83.789062 254.363281 84.539062 257.550781 84.539062 C 259.480469 84.539062 261.167969 84.25 262.617188 83.679688 C 264.0625 83.105469 265.265625 82.265625 266.226562 81.15625 C 267.183594 80.046875 267.847656 78.71875 268.210938 77.171875 L 279.597656 77.171875 C 279.226562 81.164062 277.976562 84.527344 275.851562 87.253906 C 273.726562 89.980469 271.035156 92.035156 267.78125 93.410156 C 264.523438 94.785156 260.988281 95.472656 257.179688 95.472656 Z M 257.179688 95.472656 " fill-opacity="1" fill-rule="nonzero"/><path fill="#0f0f0e" d="M 296.601562 94.902344 L 296.601562 54.941406 L 281.316406 54.941406 L 281.316406 44.175781 L 323.558594 44.175781 L 323.558594 54.941406 L 308.21875 54.941406 L 308.21875 94.902344 Z M 296.601562 94.902344 " fill-opacity="1" fill-rule="nonzero"/><path fill="#0f0f0e" d="M 350.566406 95.472656 C 345.390625 95.472656 340.902344 94.390625 337.101562 92.222656 C 333.300781 90.050781 330.371094 87.019531 328.316406 83.121094 C 326.257812 79.21875 325.226562 74.714844 325.226562 69.601562 C 325.226562 64.367188 326.285156 59.800781 328.402344 55.902344 C 330.515625 52.003906 333.492188 48.96875 337.332031 46.800781 C 341.171875 44.628906 345.679688 43.546875 350.855469 43.546875 C 355.992188 43.546875 360.460938 44.609375 364.253906 46.742188 C 368.050781 48.871094 371.007812 51.867188 373.121094 55.730469 C 375.238281 59.589844 376.296875 64.117188 376.296875 69.316406 C 376.296875 74.429688 375.246094 78.953125 373.152344 82.890625 C 371.054688 86.828125 368.082031 89.910156 364.226562 92.132812 C 360.375 94.359375 355.820312 95.472656 350.566406 95.472656 Z M 350.796875 84.539062 C 354.042969 84.539062 356.671875 83.789062 358.675781 82.296875 C 360.679688 80.800781 362.140625 78.90625 363.050781 76.613281 C 363.964844 74.320312 364.421875 71.984375 364.421875 69.601562 C 364.421875 67.824219 364.167969 66.050781 363.667969 64.277344 C 363.167969 62.503906 362.382812 60.878906 361.3125 59.398438 C 360.242188 57.917969 358.839844 56.726562 357.101562 55.828125 C 355.363281 54.929688 353.242188 54.480469 350.738281 54.480469 C 347.539062 54.480469 344.9375 55.210938 342.925781 56.675781 C 340.914062 58.136719 339.441406 60.015625 338.5 62.308594 C 337.558594 64.601562 337.089844 67.011719 337.089844 69.546875 C 337.089844 72.070312 337.566406 74.476562 338.519531 76.769531 C 339.476562 79.0625 340.96875 80.929688 342.996094 82.375 C 345.027344 83.816406 347.625 84.539062 350.796875 84.539062 Z M 350.796875 84.539062 " fill-opacity="1" fill-rule="nonzero"/><path fill="#0f0f0e" d="M 382.585938 94.902344 L 382.585938 44.175781 L 394.203125 44.175781 L 394.203125 64.441406 L 401.324219 64.441406 L 413.382812 44.175781 L 426.621094 44.175781 L 410.949219 68.644531 L 426.535156 94.902344 L 413.027344 94.902344 L 401.652344 75.148438 L 394.203125 75.148438 L 394.203125 94.902344 Z M 382.585938 94.902344 " fill-opacity="1" fill-rule="nonzero"/><g clip-path="url(#d3905a1181)"><path fill="#ffc72c" d="M 64.117188 43.667969 L 111.21875 43.667969 C 112.25 43.667969 113.269531 43.769531 114.28125 43.972656 C 115.292969 44.171875 116.273438 44.46875 117.226562 44.863281 C 118.179688 45.257812 119.082031 45.742188 119.941406 46.316406 C 120.796875 46.886719 121.589844 47.539062 122.320312 48.269531 C 123.050781 48.996094 123.699219 49.789062 124.273438 50.648438 C 124.84375 51.503906 125.328125 52.410156 125.722656 53.363281 C 126.117188 54.3125 126.414062 55.296875 126.617188 56.308594 C 126.816406 57.316406 126.917969 58.339844 126.917969 59.371094 L 126.917969 106.46875 C 126.917969 107.5 126.816406 108.523438 126.617188 109.535156 C 126.414062 110.542969 126.117188 111.527344 125.722656 112.476562 C 125.328125 113.429688 124.84375 114.335938 124.273438 115.191406 C 123.699219 116.050781 123.050781 116.84375 122.320312 117.570312 C 121.589844 118.300781 120.796875 118.953125 119.941406 119.523438 C 119.085938 120.097656 118.179688 120.582031 117.226562 120.976562 C 116.273438 121.371094 115.292969 121.667969 114.28125 121.867188 C 113.269531 122.070312 112.25 122.171875 111.21875 122.171875 L 64.117188 122.171875 C 63.085938 122.171875 62.066406 122.070312 61.054688 121.867188 C 60.042969 121.667969 59.0625 121.371094 58.109375 120.976562 C 57.15625 120.582031 56.253906 120.097656 55.394531 119.523438 C 54.539062 118.953125 53.746094 118.300781 53.015625 117.570312 C 52.289062 116.84375 51.636719 116.050781 51.0625 115.191406 C 50.492188 114.335938 50.007812 113.429688 49.613281 112.476562 C 49.21875 111.527344 48.921875 110.542969 48.71875 109.535156 C 48.519531 108.523438 48.417969 107.5 48.417969 106.46875 L 48.417969 59.371094 C 48.417969 58.339844 48.519531 57.316406 48.71875 56.308594 C 48.921875 55.296875 49.21875 54.3125 49.613281 53.363281 C 50.007812 52.410156 50.492188 51.503906 51.0625 50.648438 C 51.636719 49.789062 52.289062 48.996094 53.015625 48.269531 C 53.746094 47.539062 54.539062 46.886719 55.394531 46.316406 C 56.253906 45.742188 57.15625 45.257812 58.109375 44.863281 C 59.0625 44.46875 60.042969 44.171875 61.054688 43.972656 C 62.066406 43.769531 63.085938 43.667969 64.117188 43.667969 Z M 64.117188 43.667969 " fill-opacity="1" fill-rule="nonzero"/></g><path fill="#0f0f0e" d="M 78.050781 69.183594 L 97.285156 69.183594 C 97.554688 69.183594 97.824219 69.207031 98.089844 69.261719 C 98.355469 69.3125 98.613281 69.394531 98.863281 69.496094 C 99.113281 69.601562 99.347656 69.726562 99.574219 69.878906 C 99.800781 70.027344 100.007812 70.199219 100.199219 70.390625 C 100.390625 70.582031 100.5625 70.789062 100.710938 71.015625 C 100.863281 71.238281 100.988281 71.476562 101.09375 71.726562 C 101.195312 71.976562 101.273438 72.234375 101.328125 72.5 C 101.378906 72.765625 101.40625 73.03125 101.40625 73.304688 L 101.40625 92.535156 C 101.40625 92.808594 101.378906 93.074219 101.328125 93.339844 C 101.273438 93.605469 101.195312 93.863281 101.09375 94.113281 C 100.988281 94.363281 100.863281 94.601562 100.710938 94.824219 C 100.5625 95.050781 100.390625 95.257812 100.199219 95.449219 C 100.007812 95.640625 99.800781 95.8125 99.574219 95.964844 C 99.347656 96.113281 99.113281 96.242188 98.863281 96.34375 C 98.613281 96.449219 98.355469 96.527344 98.089844 96.578125 C 97.824219 96.632812 97.554688 96.65625 97.285156 96.65625 L 78.050781 96.65625 C 77.78125 96.65625 77.511719 96.632812 77.246094 96.578125 C 76.984375 96.527344 76.726562 96.449219 76.476562 96.34375 C 76.226562 96.242188 75.988281 96.113281 75.761719 95.964844 C 75.539062 95.8125 75.328125 95.640625 75.136719 95.449219 C 74.945312 95.257812 74.777344 95.050781 74.625 94.824219 C 74.476562 94.601562 74.347656 94.363281 74.246094 94.113281 C 74.140625 93.863281 74.0625 93.605469 74.011719 93.339844 C 73.957031 93.074219 73.929688 92.808594 73.929688 92.535156 L 73.929688 73.304688 C 73.929688 73.03125 73.957031 72.765625 74.011719 72.5 C 74.0625 72.234375 74.140625 71.976562 74.246094 71.726562 C 74.347656 71.476562 74.476562 71.238281 74.625 71.015625 C 74.777344 70.789062 74.945312 70.582031 75.136719 70.390625 C 75.328125 70.199219 75.539062 70.027344 75.761719 69.878906 C 75.988281 69.726562 76.226562 69.601562 76.476562 69.496094 C 76.726562 69.394531 76.984375 69.3125 77.246094 69.261719 C 77.511719 69.207031 77.78125 69.183594 78.050781 69.183594 Z M 78.050781 69.183594 " fill-opacity="1" fill-rule="nonzero"/></svg>